<svg width="63" height="126" fill="none" xmlns="http://www.w3.org/2000/svg"><g clip-path="url(#a)"><path d="M63.002 30.06c-18.36 0-33.297 14.778-33.297 32.94 0 18.163 14.938 32.94 33.297 32.94 18.359 0 33.295-14.776 33.295-32.94 0-18.162-14.936-32.94-33.295-32.94ZM115.603 63c0-1.674-.088-3.327-.244-4.96L126 53.78a61.838 61.838 0 0 0-2.182-9.52l-11.451.73a51.898 51.898 0 0 0-4.358-8.944l7.708-8.395a63.075 63.075 0 0 0-6.159-7.63L99.556 25.6a52.684 52.684 0 0 0-7.83-6.186l3.27-10.892a63.833 63.833 0 0 0-8.886-4.243l-6.57 9.323a52.763 52.763 0 0 0-9.774-2.198L67.934.187a65.106 65.106 0 0 0-9.87 0l-1.83 11.216A52.795 52.795 0 0 0 46.46 13.6l-6.568-9.323a63.782 63.782 0 0 0-8.886 4.243l3.271 10.892a52.659 52.659 0 0 0-7.832 6.186l-10.001-5.576a63.235 63.235 0 0 0-6.16 7.629l7.71 8.395a51.7 51.7 0 0 0-4.359 8.945l-11.452-.73A62.05 62.05 0 0 0 0 53.78l10.642 4.258a51.832 51.832 0 0 0-.245 4.96c0 1.673.088 3.326.245 4.96L0 72.217a62.178 62.178 0 0 0 2.182 9.52l11.452-.731a51.65 51.65 0 0 0 4.36 8.944l-7.711 8.396a63.311 63.311 0 0 0 6.16 7.629l10-5.576a52.731 52.731 0 0 0 7.833 6.186l-3.271 10.892a63.789 63.789 0 0 0 8.886 4.242l6.568-9.321a52.772 52.772 0 0 0 9.775 2.198l1.83 11.216c3.285.248 6.585.248 9.87 0l1.832-11.216a52.76 52.76 0 0 0 9.774-2.198l6.569 9.321a63.767 63.767 0 0 0 8.886-4.242l-3.269-10.892a52.904 52.904 0 0 0 7.83-6.186l10.002 5.576a63.1 63.1 0 0 0 6.159-7.63l-7.711-8.395a51.625 51.625 0 0 0 4.361-8.944l11.451.73a61.714 61.714 0 0 0 2.182-9.52l-10.641-4.258c.156-1.633.244-3.286.244-4.96V63Zm-52.601 38.253c-21.322 0-38.67-17.16-38.67-38.252 0-21.093 17.348-38.253 38.67-38.253 21.321 0 38.668 17.16 38.668 38.253s-17.347 38.252-38.668 38.252Z" fill="#C4C4C4"/></g><defs><clipPath id="a"><path fill="#fff" d="M0 0h63v126H0z"/></clipPath></defs></svg>